<svg xmlns="http://www.w3.org/2000/svg" width="766" height="706" viewBox="0 0 766 706">
<rect width="100%" height="100%" fill="#ffffff"/>
<style>text{font-family:Arial,sans-serif;fill:#1f2937}.title{font-size:22px;font-weight:700}.label{font-size:12px}.value{font-size:10px;font-weight:600}</style>
<text x="383.00" y="30" text-anchor="middle" class="title">TemporalCNN Final Test Confusion Matrix</text>
<text x="443.00" y="686" text-anchor="middle" class="label">Predicted modulation</text>
<text x="24" y="363.00" text-anchor="middle" class="label" transform="rotate(-90 24 363.00)">True modulation</text>
<text x="178" y="137.00" text-anchor="end" class="label">8PSK</text>
<text x="213.00" y="100" text-anchor="start" class="label" transform="rotate(-45 213.00 100)">8PSK</text>
<text x="178" y="183.00" text-anchor="end" class="label">AM-DSB</text>
<text x="259.00" y="100" text-anchor="start" class="label" transform="rotate(-45 259.00 100)">AM-DSB</text>
<text x="178" y="229.00" text-anchor="end" class="label">AM-SSB</text>
<text x="305.00" y="100" text-anchor="start" class="label" transform="rotate(-45 305.00 100)">AM-SSB</text>
<text x="178" y="275.00" text-anchor="end" class="label">BPSK</text>
<text x="351.00" y="100" text-anchor="start" class="label" transform="rotate(-45 351.00 100)">BPSK</text>
<text x="178" y="321.00" text-anchor="end" class="label">CPFSK</text>
<text x="397.00" y="100" text-anchor="start" class="label" transform="rotate(-45 397.00 100)">CPFSK</text>
<text x="178" y="367.00" text-anchor="end" class="label">GFSK</text>
<text x="443.00" y="100" text-anchor="start" class="label" transform="rotate(-45 443.00 100)">GFSK</text>
<text x="178" y="413.00" text-anchor="end" class="label">PAM4</text>
<text x="489.00" y="100" text-anchor="start" class="label" transform="rotate(-45 489.00 100)">PAM4</text>
<text x="178" y="459.00" text-anchor="end" class="label">QAM16</text>
<text x="535.00" y="100" text-anchor="start" class="label" transform="rotate(-45 535.00 100)">QAM16</text>
<text x="178" y="505.00" text-anchor="end" class="label">QAM64</text>
<text x="581.00" y="100" text-anchor="start" class="label" transform="rotate(-45 581.00 100)">QAM64</text>
<text x="178" y="551.00" text-anchor="end" class="label">QPSK</text>
<text x="627.00" y="100" text-anchor="start" class="label" transform="rotate(-45 627.00 100)">QPSK</text>
<text x="178" y="597.00" text-anchor="end" class="label">WBFM</text>
<text x="673.00" y="100" text-anchor="start" class="label" transform="rotate(-45 673.00 100)">WBFM</text>
<rect x="190" y="110" width="46" height="46" fill="rgb(138,168,206)" stroke="#ffffff"/>
<text x="213.00" y="137.00" text-anchor="middle" class="value" style="fill:#111827">45.4</text>
<rect x="236" y="110" width="46" height="46" fill="rgb(246,250,255)" stroke="#ffffff"/>
<text x="259.00" y="137.00" text-anchor="middle" class="value" style="fill:#111827">0.4</text>
<rect x="282" y="110" width="46" height="46" fill="rgb(176,197,223)" stroke="#ffffff"/>
<text x="305.00" y="137.00" text-anchor="middle" class="value" style="fill:#111827">29.7</text>
<rect x="328" y="110" width="46" height="46" fill="rgb(246,250,254)" stroke="#ffffff"/>
<text x="351.00" y="137.00" text-anchor="middle" class="value" style="fill:#111827">0.5</text>
<rect x="374" y="110" width="46" height="46" fill="rgb(233,240,249)" stroke="#ffffff"/>
<text x="397.00" y="137.00" text-anchor="middle" class="value" style="fill:#111827">5.8</text>
<rect x="420" y="110" width="46" height="46" fill="rgb(245,249,254)" stroke="#ffffff"/>
<text x="443.00" y="137.00" text-anchor="middle" class="value" style="fill:#111827">0.9</text>
<rect x="466" y="110" width="46" height="46" fill="rgb(246,250,255)" stroke="#ffffff"/>
<text x="489.00" y="137.00" text-anchor="middle" class="value" style="fill:#111827">0.3</text>
<rect x="512" y="110" width="46" height="46" fill="rgb(238,244,251)" stroke="#ffffff"/>
<text x="535.00" y="137.00" text-anchor="middle" class="value" style="fill:#111827">3.7</text>
<rect x="558" y="110" width="46" height="46" fill="rgb(243,248,253)" stroke="#ffffff"/>
<text x="581.00" y="137.00" text-anchor="middle" class="value" style="fill:#111827">1.9</text>
<rect x="604" y="110" width="46" height="46" fill="rgb(220,231,243)" stroke="#ffffff"/>
<text x="627.00" y="137.00" text-anchor="middle" class="value" style="fill:#111827">11.2</text>
<rect x="650" y="110" width="46" height="46" fill="rgb(246,251,255)" stroke="#ffffff"/>
<text x="673.00" y="137.00" text-anchor="middle" class="value" style="fill:#111827">0.3</text>
<rect x="190" y="156" width="46" height="46" fill="rgb(247,251,255)" stroke="#ffffff"/>
<text x="213.00" y="183.00" text-anchor="middle" class="value" style="fill:#111827">0.2</text>
<rect x="236" y="156" width="46" height="46" fill="rgb(101,140,190)" stroke="#ffffff"/>
<text x="259.00" y="183.00" text-anchor="middle" class="value" style="fill:#ffffff">61.2</text>
<rect x="282" y="156" width="46" height="46" fill="rgb(193,210,231)" stroke="#ffffff"/>
<text x="305.00" y="183.00" text-anchor="middle" class="value" style="fill:#111827">22.6</text>
<rect x="328" y="156" width="46" height="46" fill="rgb(246,250,255)" stroke="#ffffff"/>
<text x="351.00" y="183.00" text-anchor="middle" class="value" style="fill:#111827">0.3</text>
<rect x="374" y="156" width="46" height="46" fill="rgb(245,249,254)" stroke="#ffffff"/>
<text x="397.00" y="183.00" text-anchor="middle" class="value" style="fill:#111827">0.9</text>
<rect x="420" y="156" width="46" height="46" fill="rgb(243,248,253)" stroke="#ffffff"/>
<text x="443.00" y="183.00" text-anchor="middle" class="value" style="fill:#111827">1.6</text>
<rect x="466" y="156" width="46" height="46" fill="rgb(247,251,255)" stroke="#ffffff"/>
<text x="489.00" y="183.00" text-anchor="middle" class="value" style="fill:#111827">0.1</text>
<rect x="512" y="156" width="46" height="46" fill="rgb(247,251,255)" stroke="#ffffff"/>
<text x="535.00" y="183.00" text-anchor="middle" class="value" style="fill:#111827">0.0</text>
<rect x="558" y="156" width="46" height="46" fill="rgb(247,251,255)" stroke="#ffffff"/>
<text x="581.00" y="183.00" text-anchor="middle" class="value" style="fill:#111827">0.0</text>
<rect x="604" y="156" width="46" height="46" fill="rgb(245,250,254)" stroke="#ffffff"/>
<text x="627.00" y="183.00" text-anchor="middle" class="value" style="fill:#111827">0.8</text>
<rect x="650" y="156" width="46" height="46" fill="rgb(217,228,242)" stroke="#ffffff"/>
<text x="673.00" y="183.00" text-anchor="middle" class="value" style="fill:#111827">12.4</text>
<rect x="190" y="202" width="46" height="46" fill="rgb(246,250,255)" stroke="#ffffff"/>
<text x="213.00" y="229.00" text-anchor="middle" class="value" style="fill:#111827">0.4</text>
<rect x="236" y="202" width="46" height="46" fill="rgb(244,249,254)" stroke="#ffffff"/>
<text x="259.00" y="229.00" text-anchor="middle" class="value" style="fill:#111827">1.1</text>
<rect x="282" y="202" width="46" height="46" fill="rgb(30,86,158)" stroke="#ffffff"/>
<text x="305.00" y="229.00" text-anchor="middle" class="value" style="fill:#ffffff">90.9</text>
<rect x="328" y="202" width="46" height="46" fill="rgb(245,249,254)" stroke="#ffffff"/>
<text x="351.00" y="229.00" text-anchor="middle" class="value" style="fill:#111827">0.8</text>
<rect x="374" y="202" width="46" height="46" fill="rgb(242,247,253)" stroke="#ffffff"/>
<text x="397.00" y="229.00" text-anchor="middle" class="value" style="fill:#111827">2.3</text>
<rect x="420" y="202" width="46" height="46" fill="rgb(244,249,254)" stroke="#ffffff"/>
<text x="443.00" y="229.00" text-anchor="middle" class="value" style="fill:#111827">1.3</text>
<rect x="466" y="202" width="46" height="46" fill="rgb(246,250,255)" stroke="#ffffff"/>
<text x="489.00" y="229.00" text-anchor="middle" class="value" style="fill:#111827">0.3</text>
<rect x="512" y="202" width="46" height="46" fill="rgb(247,251,255)" stroke="#ffffff"/>
<text x="535.00" y="229.00" text-anchor="middle" class="value" style="fill:#111827">0.0</text>
<rect x="558" y="202" width="46" height="46" fill="rgb(247,251,255)" stroke="#ffffff"/>
<text x="581.00" y="229.00" text-anchor="middle" class="value" style="fill:#111827">0.0</text>
<rect x="604" y="202" width="46" height="46" fill="rgb(242,247,253)" stroke="#ffffff"/>
<text x="627.00" y="229.00" text-anchor="middle" class="value" style="fill:#111827">2.3</text>
<rect x="650" y="202" width="46" height="46" fill="rgb(246,250,255)" stroke="#ffffff"/>
<text x="673.00" y="229.00" text-anchor="middle" class="value" style="fill:#111827">0.5</text>
<rect x="190" y="248" width="46" height="46" fill="rgb(246,250,255)" stroke="#ffffff"/>
<text x="213.00" y="275.00" text-anchor="middle" class="value" style="fill:#111827">0.4</text>
<rect x="236" y="248" width="46" height="46" fill="rgb(247,251,255)" stroke="#ffffff"/>
<text x="259.00" y="275.00" text-anchor="middle" class="value" style="fill:#111827">0.1</text>
<rect x="282" y="248" width="46" height="46" fill="rgb(178,198,224)" stroke="#ffffff"/>
<text x="305.00" y="275.00" text-anchor="middle" class="value" style="fill:#111827">28.9</text>
<rect x="328" y="248" width="46" height="46" fill="rgb(107,145,192)" stroke="#ffffff"/>
<text x="351.00" y="275.00" text-anchor="middle" class="value" style="fill:#ffffff">58.5</text>
<rect x="374" y="248" width="46" height="46" fill="rgb(240,246,252)" stroke="#ffffff"/>
<text x="397.00" y="275.00" text-anchor="middle" class="value" style="fill:#111827">2.9</text>
<rect x="420" y="248" width="46" height="46" fill="rgb(245,250,254)" stroke="#ffffff"/>
<text x="443.00" y="275.00" text-anchor="middle" class="value" style="fill:#111827">0.8</text>
<rect x="466" y="248" width="46" height="46" fill="rgb(237,243,251)" stroke="#ffffff"/>
<text x="489.00" y="275.00" text-anchor="middle" class="value" style="fill:#111827">4.2</text>
<rect x="512" y="248" width="46" height="46" fill="rgb(246,250,255)" stroke="#ffffff"/>
<text x="535.00" y="275.00" text-anchor="middle" class="value" style="fill:#111827">0.4</text>
<rect x="558" y="248" width="46" height="46" fill="rgb(247,251,255)" stroke="#ffffff"/>
<text x="581.00" y="275.00" text-anchor="middle" class="value" style="fill:#111827">0.2</text>
<rect x="604" y="248" width="46" height="46" fill="rgb(239,245,251)" stroke="#ffffff"/>
<text x="627.00" y="275.00" text-anchor="middle" class="value" style="fill:#111827">3.3</text>
<rect x="650" y="248" width="46" height="46" fill="rgb(246,251,255)" stroke="#ffffff"/>
<text x="673.00" y="275.00" text-anchor="middle" class="value" style="fill:#111827">0.3</text>
<rect x="190" y="294" width="46" height="46" fill="rgb(246,250,254)" stroke="#ffffff"/>
<text x="213.00" y="321.00" text-anchor="middle" class="value" style="fill:#111827">0.6</text>
<rect x="236" y="294" width="46" height="46" fill="rgb(246,250,255)" stroke="#ffffff"/>
<text x="259.00" y="321.00" text-anchor="middle" class="value" style="fill:#111827">0.4</text>
<rect x="282" y="294" width="46" height="46" fill="rgb(180,200,225)" stroke="#ffffff"/>
<text x="305.00" y="321.00" text-anchor="middle" class="value" style="fill:#111827">27.9</text>
<rect x="328" y="294" width="46" height="46" fill="rgb(245,250,254)" stroke="#ffffff"/>
<text x="351.00" y="321.00" text-anchor="middle" class="value" style="fill:#111827">0.6</text>
<rect x="374" y="294" width="46" height="46" fill="rgb(91,132,185)" stroke="#ffffff"/>
<text x="397.00" y="321.00" text-anchor="middle" class="value" style="fill:#ffffff">65.5</text>
<rect x="420" y="294" width="46" height="46" fill="rgb(243,248,253)" stroke="#ffffff"/>
<text x="443.00" y="321.00" text-anchor="middle" class="value" style="fill:#111827">1.7</text>
<rect x="466" y="294" width="46" height="46" fill="rgb(246,250,255)" stroke="#ffffff"/>
<text x="489.00" y="321.00" text-anchor="middle" class="value" style="fill:#111827">0.3</text>
<rect x="512" y="294" width="46" height="46" fill="rgb(247,251,255)" stroke="#ffffff"/>
<text x="535.00" y="321.00" text-anchor="middle" class="value" style="fill:#111827">0.2</text>
<rect x="558" y="294" width="46" height="46" fill="rgb(247,251,255)" stroke="#ffffff"/>
<text x="581.00" y="321.00" text-anchor="middle" class="value" style="fill:#111827">0.2</text>
<rect x="604" y="294" width="46" height="46" fill="rgb(241,247,252)" stroke="#ffffff"/>
<text x="627.00" y="321.00" text-anchor="middle" class="value" style="fill:#111827">2.4</text>
<rect x="650" y="294" width="46" height="46" fill="rgb(246,251,255)" stroke="#ffffff"/>
<text x="673.00" y="321.00" text-anchor="middle" class="value" style="fill:#111827">0.2</text>
<rect x="190" y="340" width="46" height="46" fill="rgb(246,250,255)" stroke="#ffffff"/>
<text x="213.00" y="367.00" text-anchor="middle" class="value" style="fill:#111827">0.3</text>
<rect x="236" y="340" width="46" height="46" fill="rgb(245,249,254)" stroke="#ffffff"/>
<text x="259.00" y="367.00" text-anchor="middle" class="value" style="fill:#111827">0.9</text>
<rect x="282" y="340" width="46" height="46" fill="rgb(181,201,226)" stroke="#ffffff"/>
<text x="305.00" y="367.00" text-anchor="middle" class="value" style="fill:#111827">27.5</text>
<rect x="328" y="340" width="46" height="46" fill="rgb(246,250,255)" stroke="#ffffff"/>
<text x="351.00" y="367.00" text-anchor="middle" class="value" style="fill:#111827">0.3</text>
<rect x="374" y="340" width="46" height="46" fill="rgb(239,245,251)" stroke="#ffffff"/>
<text x="397.00" y="367.00" text-anchor="middle" class="value" style="fill:#111827">3.4</text>
<rect x="420" y="340" width="46" height="46" fill="rgb(95,135,187)" stroke="#ffffff"/>
<text x="443.00" y="367.00" text-anchor="middle" class="value" style="fill:#ffffff">63.8</text>
<rect x="466" y="340" width="46" height="46" fill="rgb(247,251,255)" stroke="#ffffff"/>
<text x="489.00" y="367.00" text-anchor="middle" class="value" style="fill:#111827">0.2</text>
<rect x="512" y="340" width="46" height="46" fill="rgb(247,251,255)" stroke="#ffffff"/>
<text x="535.00" y="367.00" text-anchor="middle" class="value" style="fill:#111827">0.0</text>
<rect x="558" y="340" width="46" height="46" fill="rgb(247,251,255)" stroke="#ffffff"/>
<text x="581.00" y="367.00" text-anchor="middle" class="value" style="fill:#111827">0.0</text>
<rect x="604" y="340" width="46" height="46" fill="rgb(245,249,254)" stroke="#ffffff"/>
<text x="627.00" y="367.00" text-anchor="middle" class="value" style="fill:#111827">0.8</text>
<rect x="650" y="340" width="46" height="46" fill="rgb(240,246,252)" stroke="#ffffff"/>
<text x="673.00" y="367.00" text-anchor="middle" class="value" style="fill:#111827">2.8</text>
<rect x="190" y="386" width="46" height="46" fill="rgb(246,250,255)" stroke="#ffffff"/>
<text x="213.00" y="413.00" text-anchor="middle" class="value" style="fill:#111827">0.4</text>
<rect x="236" y="386" width="46" height="46" fill="rgb(246,250,255)" stroke="#ffffff"/>
<text x="259.00" y="413.00" text-anchor="middle" class="value" style="fill:#111827">0.3</text>
<rect x="282" y="386" width="46" height="46" fill="rgb(194,211,231)" stroke="#ffffff"/>
<text x="305.00" y="413.00" text-anchor="middle" class="value" style="fill:#111827">22.0</text>
<rect x="328" y="386" width="46" height="46" fill="rgb(238,244,251)" stroke="#ffffff"/>
<text x="351.00" y="413.00" text-anchor="middle" class="value" style="fill:#111827">3.9</text>
<rect x="374" y="386" width="46" height="46" fill="rgb(242,247,253)" stroke="#ffffff"/>
<text x="397.00" y="413.00" text-anchor="middle" class="value" style="fill:#111827">2.1</text>
<rect x="420" y="386" width="46" height="46" fill="rgb(246,250,254)" stroke="#ffffff"/>
<text x="443.00" y="413.00" text-anchor="middle" class="value" style="fill:#111827">0.6</text>
<rect x="466" y="386" width="46" height="46" fill="rgb(86,128,183)" stroke="#ffffff"/>
<text x="489.00" y="413.00" text-anchor="middle" class="value" style="fill:#ffffff">67.5</text>
<rect x="512" y="386" width="46" height="46" fill="rgb(246,250,255)" stroke="#ffffff"/>
<text x="535.00" y="413.00" text-anchor="middle" class="value" style="fill:#111827">0.4</text>
<rect x="558" y="386" width="46" height="46" fill="rgb(246,251,255)" stroke="#ffffff"/>
<text x="581.00" y="413.00" text-anchor="middle" class="value" style="fill:#111827">0.3</text>
<rect x="604" y="386" width="46" height="46" fill="rgb(242,247,253)" stroke="#ffffff"/>
<text x="627.00" y="413.00" text-anchor="middle" class="value" style="fill:#111827">2.2</text>
<rect x="650" y="386" width="46" height="46" fill="rgb(246,250,255)" stroke="#ffffff"/>
<text x="673.00" y="413.00" text-anchor="middle" class="value" style="fill:#111827">0.4</text>
<rect x="190" y="432" width="46" height="46" fill="rgb(242,247,253)" stroke="#ffffff"/>
<text x="213.00" y="459.00" text-anchor="middle" class="value" style="fill:#111827">2.1</text>
<rect x="236" y="432" width="46" height="46" fill="rgb(246,251,255)" stroke="#ffffff"/>
<text x="259.00" y="459.00" text-anchor="middle" class="value" style="fill:#111827">0.2</text>
<rect x="282" y="432" width="46" height="46" fill="rgb(203,217,235)" stroke="#ffffff"/>
<text x="305.00" y="459.00" text-anchor="middle" class="value" style="fill:#111827">18.5</text>
<rect x="328" y="432" width="46" height="46" fill="rgb(245,250,254)" stroke="#ffffff"/>
<text x="351.00" y="459.00" text-anchor="middle" class="value" style="fill:#111827">0.8</text>
<rect x="374" y="432" width="46" height="46" fill="rgb(238,244,251)" stroke="#ffffff"/>
<text x="397.00" y="459.00" text-anchor="middle" class="value" style="fill:#111827">3.8</text>
<rect x="420" y="432" width="46" height="46" fill="rgb(245,250,254)" stroke="#ffffff"/>
<text x="443.00" y="459.00" text-anchor="middle" class="value" style="fill:#111827">0.6</text>
<rect x="466" y="432" width="46" height="46" fill="rgb(246,251,255)" stroke="#ffffff"/>
<text x="489.00" y="459.00" text-anchor="middle" class="value" style="fill:#111827">0.2</text>
<rect x="512" y="432" width="46" height="46" fill="rgb(237,244,251)" stroke="#ffffff"/>
<text x="535.00" y="459.00" text-anchor="middle" class="value" style="fill:#111827">4.1</text>
<rect x="558" y="432" width="46" height="46" fill="rgb(98,137,188)" stroke="#ffffff"/>
<text x="581.00" y="459.00" text-anchor="middle" class="value" style="fill:#ffffff">62.4</text>
<rect x="604" y="432" width="46" height="46" fill="rgb(230,238,247)" stroke="#ffffff"/>
<text x="627.00" y="459.00" text-anchor="middle" class="value" style="fill:#111827">7.1</text>
<rect x="650" y="432" width="46" height="46" fill="rgb(247,251,255)" stroke="#ffffff"/>
<text x="673.00" y="459.00" text-anchor="middle" class="value" style="fill:#111827">0.2</text>
<rect x="190" y="478" width="46" height="46" fill="rgb(243,248,253)" stroke="#ffffff"/>
<text x="213.00" y="505.00" text-anchor="middle" class="value" style="fill:#111827">1.9</text>
<rect x="236" y="478" width="46" height="46" fill="rgb(246,251,255)" stroke="#ffffff"/>
<text x="259.00" y="505.00" text-anchor="middle" class="value" style="fill:#111827">0.2</text>
<rect x="282" y="478" width="46" height="46" fill="rgb(221,231,243)" stroke="#ffffff"/>
<text x="305.00" y="505.00" text-anchor="middle" class="value" style="fill:#111827">11.0</text>
<rect x="328" y="478" width="46" height="46" fill="rgb(246,250,254)" stroke="#ffffff"/>
<text x="351.00" y="505.00" text-anchor="middle" class="value" style="fill:#111827">0.6</text>
<rect x="374" y="478" width="46" height="46" fill="rgb(238,244,251)" stroke="#ffffff"/>
<text x="397.00" y="505.00" text-anchor="middle" class="value" style="fill:#111827">3.7</text>
<rect x="420" y="478" width="46" height="46" fill="rgb(246,250,254)" stroke="#ffffff"/>
<text x="443.00" y="505.00" text-anchor="middle" class="value" style="fill:#111827">0.5</text>
<rect x="466" y="478" width="46" height="46" fill="rgb(246,250,255)" stroke="#ffffff"/>
<text x="489.00" y="505.00" text-anchor="middle" class="value" style="fill:#111827">0.4</text>
<rect x="512" y="478" width="46" height="46" fill="rgb(239,245,251)" stroke="#ffffff"/>
<text x="535.00" y="505.00" text-anchor="middle" class="value" style="fill:#111827">3.4</text>
<rect x="558" y="478" width="46" height="46" fill="rgb(75,120,178)" stroke="#ffffff"/>
<text x="581.00" y="505.00" text-anchor="middle" class="value" style="fill:#ffffff">71.9</text>
<rect x="604" y="478" width="46" height="46" fill="rgb(232,239,248)" stroke="#ffffff"/>
<text x="627.00" y="505.00" text-anchor="middle" class="value" style="fill:#111827">6.4</text>
<rect x="650" y="478" width="46" height="46" fill="rgb(247,251,255)" stroke="#ffffff"/>
<text x="673.00" y="505.00" text-anchor="middle" class="value" style="fill:#111827">0.0</text>
<rect x="190" y="524" width="46" height="46" fill="rgb(242,247,253)" stroke="#ffffff"/>
<text x="213.00" y="551.00" text-anchor="middle" class="value" style="fill:#111827">1.9</text>
<rect x="236" y="524" width="46" height="46" fill="rgb(246,250,255)" stroke="#ffffff"/>
<text x="259.00" y="551.00" text-anchor="middle" class="value" style="fill:#111827">0.3</text>
<rect x="282" y="524" width="46" height="46" fill="rgb(177,197,224)" stroke="#ffffff"/>
<text x="305.00" y="551.00" text-anchor="middle" class="value" style="fill:#111827">29.4</text>
<rect x="328" y="524" width="46" height="46" fill="rgb(244,249,254)" stroke="#ffffff"/>
<text x="351.00" y="551.00" text-anchor="middle" class="value" style="fill:#111827">1.1</text>
<rect x="374" y="524" width="46" height="46" fill="rgb(236,243,250)" stroke="#ffffff"/>
<text x="397.00" y="551.00" text-anchor="middle" class="value" style="fill:#111827">4.5</text>
<rect x="420" y="524" width="46" height="46" fill="rgb(246,250,254)" stroke="#ffffff"/>
<text x="443.00" y="551.00" text-anchor="middle" class="value" style="fill:#111827">0.5</text>
<rect x="466" y="524" width="46" height="46" fill="rgb(246,250,255)" stroke="#ffffff"/>
<text x="489.00" y="551.00" text-anchor="middle" class="value" style="fill:#111827">0.4</text>
<rect x="512" y="524" width="46" height="46" fill="rgb(245,250,254)" stroke="#ffffff"/>
<text x="535.00" y="551.00" text-anchor="middle" class="value" style="fill:#111827">0.7</text>
<rect x="558" y="524" width="46" height="46" fill="rgb(245,250,254)" stroke="#ffffff"/>
<text x="581.00" y="551.00" text-anchor="middle" class="value" style="fill:#111827">0.7</text>
<rect x="604" y="524" width="46" height="46" fill="rgb(103,142,191)" stroke="#ffffff"/>
<text x="627.00" y="551.00" text-anchor="middle" class="value" style="fill:#ffffff">60.1</text>
<rect x="650" y="524" width="46" height="46" fill="rgb(246,250,255)" stroke="#ffffff"/>
<text x="673.00" y="551.00" text-anchor="middle" class="value" style="fill:#111827">0.3</text>
<rect x="190" y="570" width="46" height="46" fill="rgb(247,251,255)" stroke="#ffffff"/>
<text x="213.00" y="597.00" text-anchor="middle" class="value" style="fill:#111827">0.1</text>
<rect x="236" y="570" width="46" height="46" fill="rgb(152,178,212)" stroke="#ffffff"/>
<text x="259.00" y="597.00" text-anchor="middle" class="value" style="fill:#111827">39.9</text>
<rect x="282" y="570" width="46" height="46" fill="rgb(189,206,229)" stroke="#ffffff"/>
<text x="305.00" y="597.00" text-anchor="middle" class="value" style="fill:#111827">24.5</text>
<rect x="328" y="570" width="46" height="46" fill="rgb(247,251,255)" stroke="#ffffff"/>
<text x="351.00" y="597.00" text-anchor="middle" class="value" style="fill:#111827">0.2</text>
<rect x="374" y="570" width="46" height="46" fill="rgb(245,249,254)" stroke="#ffffff"/>
<text x="397.00" y="597.00" text-anchor="middle" class="value" style="fill:#111827">0.9</text>
<rect x="420" y="570" width="46" height="46" fill="rgb(240,246,252)" stroke="#ffffff"/>
<text x="443.00" y="597.00" text-anchor="middle" class="value" style="fill:#111827">2.8</text>
<rect x="466" y="570" width="46" height="46" fill="rgb(247,251,255)" stroke="#ffffff"/>
<text x="489.00" y="597.00" text-anchor="middle" class="value" style="fill:#111827">0.0</text>
<rect x="512" y="570" width="46" height="46" fill="rgb(247,251,255)" stroke="#ffffff"/>
<text x="535.00" y="597.00" text-anchor="middle" class="value" style="fill:#111827">0.0</text>
<rect x="558" y="570" width="46" height="46" fill="rgb(247,251,255)" stroke="#ffffff"/>
<text x="581.00" y="597.00" text-anchor="middle" class="value" style="fill:#111827">0.0</text>
<rect x="604" y="570" width="46" height="46" fill="rgb(246,250,255)" stroke="#ffffff"/>
<text x="627.00" y="597.00" text-anchor="middle" class="value" style="fill:#111827">0.3</text>
<rect x="650" y="570" width="46" height="46" fill="rgb(172,194,221)" stroke="#ffffff"/>
<text x="673.00" y="597.00" text-anchor="middle" class="value" style="fill:#111827">31.4</text>
</svg>
